<?xml version="1.0" encoding="utf-8"?>
<!-- Generator: Adobe Illustrator 25.3.1, SVG Export Plug-In . SVG Version: 6.00 Build 0)  -->
<svg version="1.1" id="Capa_1" xmlns="http://www.w3.org/2000/svg" xmlns:xlink="http://www.w3.org/1999/xlink" x="0px" y="0px"
	 viewBox="0 0 512 512" style="enable-background:new 0 0 512 512;" xml:space="preserve">
<style type="text/css">
	.st0{fill:#FFFFFF;}
</style>
<g>
	<g>
		<g>
			<path class="st0" d="M316.3,288.7H130c-2,0-3.9,0.8-5.3,2.2l-89.4,89.4l10.5,10.5l87.3-87.3h175.1c-1.6,8.8-6.4,22.4-21.6,22.4
				h-82v14.9h82c29.5,0,37.3-29.3,37.3-44.7C323.8,292,320.4,288.7,316.3,288.7z"/>
			<g>
				<path class="st0" d="M316.3,284.7c-45.8,0-91.6,0-137.4,0c-16.2,0-32.7-0.9-48.9,0c-7.4,0.4-13,8.2-17.9,13.1
					c-9.3,9.3-18.6,18.6-27.9,27.9c-17.3,17.3-34.5,34.5-51.8,51.8c-1.5,1.5-1.5,4.1,0,5.7c3.5,3.5,7,7,10.5,10.5
					c1.5,1.5,4.1,1.5,5.7,0c25.5-25.5,50.9-50.9,76.4-76.4c3.6-3.6,7.2-7.2,10.9-10.9c-0.9,0.4-1.9,0.8-2.8,1.2c19.7,0,39.4,0,59,0
					c31.4,0,62.8,0,94.2,0c7.3,0,14.5,0,21.8,0c-1.3-1.7-2.6-3.4-3.9-5.1c-1.8,9.9-6.6,19.1-17.9,19.4c-4.5,0.1-9.1,0-13.6,0
					c-17.9,0-35.8,0-53.7,0c-4.8,0-9.7,0-14.5,0c-2.2,0-4,1.8-4,4c0,5,0,9.9,0,14.9c0,2.2,1.8,4,4,4c19.9,0,39.9,0,59.8,0
					c7.4,0,14.7,0.1,22.1,0c14.9-0.2,27.5-7.6,34.5-20.8C326.5,313.6,335.2,286.4,316.3,284.7c-5.1-0.5-5.1,7.5,0,8
					c10,0.9-2.6,28.7-5.6,32.6c-6.5,8.5-15.9,11.6-26.2,11.6c-19.7,0-39.4,0-59.2,0c-6.9,0-13.9,0-20.8,0c1.3,1.3,2.7,2.7,4,4
					c0-5,0-9.9,0-14.9c-1.3,1.3-2.7,2.7-4,4c13.8,0,27.7,0,41.5,0c13.9,0,28.1,0.8,41.9,0c14-0.9,21.7-12.5,24-25.3
					c0.5-2.5-1.1-5.1-3.9-5.1c-43.7,0-87.4,0-131.2,0c-10.6,0-21.3,0-31.9,0c-3.7,0-10.5-1.3-14,0.5c-1.5,0.8-2.7,2.6-3.9,3.7
					c-2.9,2.9-5.8,5.8-8.7,8.7c-9.2,9.2-18.4,18.4-27.6,27.6C74.8,356,58.8,372,42.9,387.9c1.9,0,3.8,0,5.7,0
					c-3.5-3.5-7-7-10.5-10.5c0,1.9,0,3.8,0,5.7c14.2-14.2,28.4-28.4,42.6-42.6c10.1-10.1,20.3-20.3,30.4-30.4
					c5.2-5.2,10.3-11.8,16.2-16.2c3.2-2.4,8.8-1.3,12.5-1.3c10.4,0,20.8,0,31.3,0c29.4,0,58.8,0,88.2,0c19,0,38.1,0,57.1,0
					C321.5,292.7,321.5,284.7,316.3,284.7z"/>
			</g>
		</g>
	</g>
</g>
<g>
	<g>
		<g>
			<path class="st0" d="M411,238.7c-2.9-2.9-7.6-2.9-10.5,0l-67.1,67.1l10.5,10.5l61.2-61.2c10.1,13.4,8,32.3-4.7,43.2l-87.3,87.3
				H159.8c-2,0-3.9,0.8-5.3,2.2L102.3,440l10.5,10.5l50-50h153.5c2,0,3.9-0.8,5.3-2.2l89.4-89.4C438.8,281.1,423.2,250.8,411,238.7z
				"/>
			<g>
				<path class="st0" d="M413.9,235.8c-6.6-5.5-13.2-3-18.5,2.3c-4.8,4.8-9.6,9.6-14.3,14.3c-13.4,13.4-26.9,26.9-40.3,40.3
					c-3.4,3.4-6.7,6.7-10.1,10.1c-1.5,1.5-1.5,4.1,0,5.7c3.5,3.5,7,7,10.5,10.5c1.5,1.5,4.1,1.5,5.7,0
					c17.8-17.8,35.6-35.6,53.4-53.4c2.6-2.6,5.2-5.2,7.8-7.8c-2.1-0.3-4.2-0.5-6.3-0.8c5.9,8.2,7.7,18.7,3.6,28.2
					c-2,4.5-5.2,7.8-8.7,11.2c-5.6,5.5-11.2,11.2-16.8,16.8c-18.4,18.4-36.9,36.9-55.3,55.3c-4.7,4.7-9.4,9.4-14.2,14.2
					c0.9-0.4,1.9-0.8,2.8-1.2c-32.3,0-64.6,0-96.9,0c-16.9,0-33.8,0-50.7,0c-5.1,0-9.7-0.4-13.9,3.4c-4.1,3.7-7.8,7.8-11.7,11.7
					c-13.5,13.5-27,27-40.5,40.5c-1.5,1.5-1.5,4.1,0,5.7c3.5,3.5,7,7,10.5,10.5c1.5,1.5,4.1,1.5,5.7,0c16.7-16.7,33.3-33.3,50-50
					c-0.9,0.4-1.9,0.8-2.8,1.2c47.6,0,95.3,0,142.9,0c6.4,0,13.7,1.2,18.8-3.5c5.9-5.3,11.3-11.3,16.9-16.9
					c20.6-20.6,41.2-41.2,61.8-61.8c8.5-8.5,17.8-16.7,22.9-27.8C435.3,274.6,428.9,251.2,413.9,235.8c-3.6-3.7-9.3,2-5.7,5.7
					c7.2,7.4,12.5,17.2,13.9,27.5c2,14.2-4.1,27.1-14,37.1c-6.8,6.9-13.7,13.7-20.5,20.5c-22.3,22.3-44.7,44.7-67,67
					c-4.4,4.4-10.7,2.9-16.6,2.9c-15.4,0-30.8,0-46.2,0c-30.7,0-61.4,0-92.1,0c-2.5,0-4.2-0.1-6.3,1.7c-4.3,3.8-8.3,8.3-12.3,12.3
					c-11.6,11.6-23.2,23.2-34.8,34.8c-0.8,0.8-1.6,1.6-2.3,2.3c1.9,0,3.8,0,5.7,0c-3.5-3.5-7-7-10.5-10.5c0,1.9,0,3.8,0,5.7
					c8.8-8.8,17.6-17.6,26.4-26.4c6-6,12-12,18-18c2.6-2.6,5.5-6.8,9-8.3c2.2-0.9,4.8-0.5,7.2-0.5c5.4,0,10.9,0,16.3,0
					c16.6,0,33.3,0,49.9,0c17.5,0,34.9,0,52.4,0c9.3,0,19,0.8,28.3,0c2.6-0.2,3.7-1.5,5.4-3.2c3.5-3.5,7-7,10.5-10.5
					c12.1-12.1,24.2-24.2,36.3-36.3c10.8-10.8,21.7-21.7,32.5-32.5c2-2,3.9-3.9,5.9-5.9c8.5-8.2,13.4-18.9,12-30.9
					c-0.7-6.3-3-12.1-6.7-17.2c-1.5-2.1-4.3-2.8-6.3-0.8c-17.8,17.8-35.6,35.6-53.4,53.4c-2.6,2.6-5.2,5.2-7.8,7.8
					c1.9,0,3.8,0,5.7,0c-3.5-3.5-7-7-10.5-10.5c0,1.9,0,3.8,0,5.7c19.9-19.9,39.8-39.8,59.7-59.7c2.4-2.4,8.3-10.7,12.3-7.4
					C412.1,244.8,417.8,239.1,413.9,235.8z"/>
			</g>
		</g>
	</g>
</g>
<g>
	<path class="st0" d="M502.3,186c-14.1-49.7-43.6-94.7-83.5-127.5C378.6,25.3,328.7,5.1,276.7,0.8C269.8,0.3,262.9,0,256,0
		c-52.9,0.1-105.1,16.5-148.3,47.3c-41.8,29.8-74,71.8-91.9,119.9C5.3,195.6,0.1,225.8,0,256c0,2,1.7,3.7,3.7,3.7
		c5.3,0,10.5,0,15.8,0c2,0,3.7-1.7,3.7-3.7c0.2-72.2,34.2-141.4,91.7-185.2C172.8,26.6,249.8,12.1,319.8,32
		c68.1,19.3,125.1,70.3,151.8,135.9c27.5,67.5,21.5,145.9-16.2,208.4c-36.8,60.9-101.2,102.8-172,111c-9.1,1.1-18.2,1.5-27.4,1.6
		c-2,0-3.7,1.7-3.7,3.7c0,5.3,0,10.5,0,15.8c0,2,1.7,3.7,3.7,3.7c52.9-0.1,105.1-16.5,148.3-47.3c41.9-29.9,74.3-72.2,92.1-120.5
		C514.9,293.8,517,237.7,502.3,186z"/>
</g>
<g>
	<g>
		<g>
			<path class="st0" d="M346.1,147h-52.2v14.9h34.2l-74.5,74.5h-34.2v14.9h37.3c2,0,3.9-0.8,5.3-2.2l76.7-76.7v26.7h14.9v-44.7
				C353.6,150.4,350.2,147,346.1,147z"/>
			<g>
				<path class="st0" d="M346.1,143c-17.4,0-34.8,0-52.2,0c-2.2,0-4,1.8-4,4c0,5,0,9.9,0,14.9c0,2.2,1.8,4,4,4c11.4,0,22.8,0,34.2,0
					c-0.9-2.3-1.9-4.6-2.8-6.8c-21.8,21.8-43.5,43.5-65.3,65.3c-3.1,3.1-6.2,6.2-9.2,9.2c0.9-0.4,1.9-0.8,2.8-1.2
					c-11.4,0-22.8,0-34.2,0c-2.2,0-4,1.8-4,4c0,5,0,9.9,0,14.9c0,2.2,1.8,4,4,4c11,0,21.9,0,32.9,0c4.7,0,8.8,0,12.6-3.4
					c1.7-1.5,3.2-3.2,4.8-4.8c18.2-18.2,36.4-36.4,54.6-54.6c5.7-5.7,11.5-11.5,17.2-17.2c-2.3-0.9-4.6-1.9-6.8-2.8
					c0,8.9,0,17.8,0,26.7c0,2.2,1.8,4,4,4c5,0,9.9,0,14.9,0c2.2,0,4-1.8,4-4c0-9.9,0-19.8,0-29.6C357.6,159.5,360.2,144.3,346.1,143
					c-5.1-0.5-5.1,7.5,0,8c4.4,0.4,3.5,5.6,3.5,8.7c0,5.2,0,10.4,0,15.6c0,7.9,0,15.9,0,23.8c1.3-1.3,2.7-2.7,4-4c-5,0-9.9,0-14.9,0
					c1.3,1.3,2.7,2.7,4,4c0-8.9,0-17.8,0-26.7c0-3.5-4.4-5.3-6.8-2.8c-13.8,13.8-27.7,27.7-41.5,41.5c-8.9,8.9-17.7,17.7-26.6,26.6
					c-3.8,3.8-7.3,9.3-12.9,9.6c-11.7,0.7-23.7,0-35.4,0c1.3,1.3,2.7,2.7,4,4c0-5,0-9.9,0-14.9c-1.3,1.3-2.7,2.7-4,4
					c10.3,0,20.6,0,30.9,0c2.7,0,4.6,0.1,6.7-1.7s4-4,6-6c17.4-17.4,34.9-34.9,52.3-52.3c5.2-5.2,10.5-10.5,15.7-15.7
					c2.4-2.4,0.6-6.8-2.8-6.8c-11.4,0-22.8,0-34.2,0c1.3,1.3,2.7,2.7,4,4c0-5,0-9.9,0-14.9c-1.3,1.3-2.7,2.7-4,4
					c17.4,0,34.8,0,52.2,0C351.3,151,351.3,143,346.1,143z"/>
			</g>
		</g>
	</g>
</g>
<g>
	<g>
		<g>
			<path class="st0" d="M115,236.5c-2,0-3.9,0.8-5.3,2.2L87.4,261L98,271.6l20.2-20.2h56.5v-14.9L115,236.5L115,236.5z"/>
			<g>
				<path class="st0" d="M115,232.5c-7.4,0.7-11.9,7.2-16.9,12.1c-4.5,4.5-9.1,9.1-13.6,13.6c-1.5,1.5-1.5,4.1,0,5.7
					c3.5,3.5,7,7,10.5,10.5c1.5,1.5,4.1,1.5,5.7,0c6.7-6.7,13.5-13.5,20.2-20.2c-0.9,0.4-1.9,0.8-2.8,1.2c18.8,0,37.7,0,56.5,0
					c2.2,0,4-1.8,4-4c0-5,0-9.9,0-14.9c0-2.2-1.8-4-4-4C154.8,232.5,134.9,232.5,115,232.5c-5.1,0-5.2,8,0,8c19.9,0,39.8,0,59.6,0
					c-1.3-1.3-2.7-2.7-4-4c0,5,0,9.9,0,14.9c1.3-1.3,2.7-2.7,4-4c-12.2,0-24.4,0-36.6,0c-6.1,0-12.2-0.1-18.3,0
					c-4.4,0.1-6.5,3.2-9.4,6.2c-5.1,5.1-10.1,10.1-15.2,15.2c1.9,0,3.8,0,5.7,0c-3.5-3.5-7-7-10.5-10.5c0,1.9,0,3.8,0,5.7
					c3.8-3.8,7.7-7.7,11.5-11.5c2.5-2.5,5.1-5.1,7.6-7.6c1.5-1.5,3.3-4,5.7-4.3C120.1,240,120.2,232,115,232.5z"/>
			</g>
		</g>
	</g>
</g>
<g>
	<g>
		<g>
			<rect x="189.6" y="236.5" class="st0" width="14.9" height="14.9"/>
			<g>
				<path class="st0" d="M189.6,240.5c5,0,9.9,0,14.9,0c-1.3-1.3-2.7-2.7-4-4c0,5,0,9.9,0,14.9c1.3-1.3,2.7-2.7,4-4
					c-5,0-9.9,0-14.9,0c1.3,1.3,2.7,2.7,4,4c0-5,0-9.9,0-14.9c0-5.1-8-5.2-8,0c0,5,0,9.9,0,14.9c0,2.2,1.8,4,4,4c5,0,9.9,0,14.9,0
					c2.2,0,4-1.8,4-4c0-5,0-9.9,0-14.9c0-2.2-1.8-4-4-4c-5,0-9.9,0-14.9,0C184.4,232.5,184.4,240.5,189.6,240.5z"/>
			</g>
		</g>
	</g>
</g>
<g>
	<g>
		<g>
			<path class="st0" d="M64.8,182.5l15.3,4.8C102.9,113.7,171,63.7,248,64V48C164,47.7,89.7,102.3,64.8,182.5z"/>
			<g>
				<path class="st0" d="M63.7,186.3c5.1,1.6,10.2,3.2,15.3,4.8c2.1,0.7,4.3-0.8,4.9-2.8c17.2-54.6,61.2-97.9,116.3-113.7
					c15.6-4.5,31.6-6.6,47.8-6.6c2.2,0,4-1.8,4-4c0-5.3,0-10.7,0-16c0-2.2-1.8-4-4-4c-65,0-126.9,32.8-163.1,87
					c-10.4,15.5-18.4,32.6-24,50.4c-1.5,4.9,6.2,7,7.7,2.1C87.4,124,135.4,76.6,195.5,59.3c17.1-4.9,34.7-7.3,52.5-7.3
					c-1.3-1.3-2.7-2.7-4-4c0,5.3,0,10.7,0,16c1.3-1.3,2.7-2.7,4-4c-59.8,0-116.7,30.2-149.9,80.1c-9.5,14.2-16.8,29.8-21.9,46.1
					c1.6-0.9,3.3-1.9,4.9-2.8c-5.1-1.6-10.2-3.2-15.3-4.8C60.9,177.1,58.8,184.8,63.7,186.3z"/>
			</g>
		</g>
	</g>
</g>
</svg>
