<?xml version="1.0" encoding="utf-8"?>
<!-- Generator: Adobe Illustrator 25.3.1, SVG Export Plug-In . SVG Version: 6.00 Build 0)  -->
<svg version="1.1" id="Capa_1" xmlns="http://www.w3.org/2000/svg" xmlns:xlink="http://www.w3.org/1999/xlink" x="0px" y="0px"
	 viewBox="0 0 419 442.9" style="enable-background:new 0 0 419 442.9;" xml:space="preserve">
<style type="text/css">
	.st0{fill:#FFFFFF;}
</style>
<g>
	<path class="st0" d="M209.7,1.8c-78.4,0-141.9,63.5-141.9,141.8s63.5,141.9,141.9,141.9S351.6,222,351.6,143.6l0,0
		C351.5,65.3,288,1.8,209.7,1.8L209.7,1.8z M209.7,271.5c-70.6,0-127.9-57.2-127.9-127.9S139.1,15.8,209.7,15.8
		S337.6,73,337.6,143.7l0,0C337.5,214.2,280.3,271.4,209.7,271.5L209.7,271.5z"/>
	<path class="st0" d="M247.3,79.9c3.9,0,7-3.1,7-7s-3.1-7-7-7h-30.6V54c0-3.9-3.1-7-7-7s-7,3.1-7,7v11.8h-30.6c-3.9,0-7,3.1-7,7
		v70.8c0,3.9,3.1,7,7,7h30.6v56.8h-30.6c-3.9,0-7,3.1-7,7s3.1,7,7,7h30.6v11.8c0,3.9,3.1,7,7,7s7-3.1,7-7v-11.8h30.6
		c3.9,0,7-3.1,7-7v-70.8c0-3.9-3.1-7-7-7h-30.6V79.8L247.3,79.9z M202.7,136.6h-23.6V79.9h23.6V136.6z M240.3,150.6v56.8h-23.6
		v-56.8H240.3z"/>
	<path class="st0" d="M373.6,267.3l-65.2,52.5c-3,2.5-6.2,4.7-9.6,6.6c0.2-4.5-0.6-9.1-2.4-13.3c-6.6-20.1-28.1-16.2-36.3-14.7
		c-21.4,4.4-56,4.5-60.9,4.9c-24.3-7.7-37.6-13.1-58.3-14.3c-13.9-0.9-27.9,1.2-40.9,6.3V283c0-3.9-3.1-7-7-7H7c-3.9,0-7,3.1-7,7
		v152.9c0,3.9,3.1,7,7,7h86c3.9,0,7-3.1,7-7l0,0v-24.1h93.9c9.9,0,19.8-1,29.5-3.1c24.1-5.2,59.7-16.1,85.3-24.2
		c11.7-3.7,22.4-9.8,31.6-17.8c1.8-1.5,69.8-60.7,70.2-61.1c10.4-9.1,11.6-24.9,2.5-35.4C403,258.5,385.4,257.2,373.6,267.3
		L373.6,267.3z M86,429H14V290.1h72V429z M401.5,295c-0.4,0.4-68,59.1-70.2,61c-7.8,6.8-16.9,11.9-26.7,15.1
		c-25.4,8.1-60.5,18.7-84,23.9c-8.7,1.9-17.6,2.8-26.6,2.8h-93.9v-87.5c15-5.7,24.5-8.1,40.1-7.2c18.6,1,31.3,6.1,56.1,14l0.3,0.1
		c22.2,0.1,44.4-1.5,66.3-5c17.5-3.2,19.1,1.5,20.3,5.4c0.9,2.2,1.5,4.5,1.7,6.8c0,7.4-1.6,9.8-4.8,11.4l-69.6,17.8
		c-3.8,0.9-6.1,4.6-5.2,8.4c0.9,3.8,4.6,6.1,8.4,5.2c0.1,0,0.2,0,0.3-0.1c109.2-27.9,48.4-11.8,74.2-19.7
		c10.4-4.4,20.2-10.1,29.2-17l65.2-52.5c5.9-5.1,14.8-4.5,20,1.4l0,0C406.6,284,406.1,291,401.5,295L401.5,295z"/>
</g>
</svg>
