<?xml version="1.0" encoding="utf-8"?>
<!-- Generator: Adobe Illustrator 25.3.1, SVG Export Plug-In . SVG Version: 6.00 Build 0)  -->
<svg version="1.1" id="Capa_1" xmlns="http://www.w3.org/2000/svg" xmlns:xlink="http://www.w3.org/1999/xlink" x="0px" y="0px"
	 viewBox="0 0 480 480" style="enable-background:new 0 0 480 480;" xml:space="preserve">
<style type="text/css">
	.st0{fill:#021D49;}
</style>
<g>
	<path class="st0" d="M437.5,63.2H401V34.6C401,15.5,385.5,0,366.4,0s-34.6,15.5-34.6,34.6v28.6H148.1V34.6
		c0-19.1-15.5-34.6-34.6-34.6S79,15.5,79,34.6v28.6H42.5C19.1,63.2,0,82.3,0,105.7v331.9C0,460.9,19.1,480,42.5,480h395.1
		c23.4,0,42.5-19.1,42.5-42.5V105.7C480,82.3,460.9,63.2,437.5,63.2z M437.5,458.3h-395c-11.4,0-20.7-9.3-20.7-20.7V179.8h436.5
		v257.8C458.3,449,449,458.3,437.5,458.3z M42.5,84.9H79v12.8c0,19.1,15.5,34.6,34.6,34.6s34.6-15.5,34.6-34.6V84.9h183.7v12.8
		c0,19.1,15.5,34.6,34.6,34.6s34.6-15.5,34.6-34.6V84.9h36.5c11.4,0,20.7,9.3,20.7,20.7V158H21.7v-52.3C21.7,94.2,31,84.9,42.5,84.9
		z M379.3,97.8c0,7.1-5.8,12.8-12.8,12.8c-7.1,0-12.8-5.8-12.8-12.8V34.6c0-7.1,5.8-12.8,12.8-12.8c7.1,0,12.8,5.8,12.8,12.8V97.8z
		 M126.4,97.8c0,7.1-5.8,12.8-12.8,12.8s-12.8-5.8-12.8-12.8V34.6c0-7.1,5.8-12.8,12.8-12.8s12.8,5.8,12.8,12.8V97.8z"/>
	<rect x="229.1" y="126.4" class="st0" width="21.7" height="21.7"/>
	<rect x="260.7" y="126.4" class="st0" width="21.7" height="21.7"/>
	<rect x="197.5" y="126.4" class="st0" width="21.7" height="21.7"/>
	<path class="st0" d="M404.4,302.3L404.4,302.3l-86.9-63.2c-3.3-2.4-7.6-2.8-11.3-0.9c-3.7,1.9-5.9,5.6-5.9,9.7v12.8H145.2
		c-6,0-10.9,4.9-10.9,10.9v79c0,6,4.9,10.9,10.9,10.9h155.1v12.8c0,4.1,2.3,7.8,5.9,9.7c1.5,0.8,3.2,1.2,4.9,1.2
		c2.3,0,4.5-0.7,6.4-2.1l86.9-63.2c2.8-2,4.5-5.3,4.5-8.8S407.2,304.4,404.4,302.3z M318.8,342.9c-2.1-2-4.8-3.2-7.7-3.2H156v-57.3
		h155.1c6,0,10.9-4.9,10.9-10.9v-2.4l57.6,41.9L322,353v-2.4C322,347.7,320.8,344.9,318.8,342.9z"/>
	<rect x="102.7" y="260.7" class="st0" width="21.7" height="100.7"/>
	<rect x="71.1" y="260.7" class="st0" width="21.7" height="100.7"/>
</g>
</svg>
