<svg xmlns="http://www.w3.org/2000/svg" viewBox="0 0 594.82 163.65"><defs><style>.cls-1{fill:#003a70;}.cls-2{fill:#d7282f;}.cls-3{fill:#596f99;}.cls-4{fill:#335384;}.cls-5{fill:#003670;}.cls-6{fill:#cb2d30;}</style></defs><g id="Capa_2" data-name="Capa 2"><g id="Capa_1-2" data-name="Capa 1"><path class="cls-1" d="M204.13,61.77A31.55,31.55,0,0,1,191.73,50a32.37,32.37,0,0,1-4.51-17,32.43,32.43,0,0,1,4.51-17,31.69,31.69,0,0,1,12.4-11.76,39.57,39.57,0,0,1,32.74-1.32,30,30,0,0,1,11.25,8.39l-9.48,8.75a20.39,20.39,0,0,0-16-7.48A21.32,21.32,0,0,0,212,15.18a18.45,18.45,0,0,0-7.25,7.25A21.35,21.35,0,0,0,202.17,33a21.31,21.31,0,0,0,2.6,10.57A18.45,18.45,0,0,0,212,50.83a21.32,21.32,0,0,0,10.58,2.6,20.26,20.26,0,0,0,16-7.57l9.48,8.76a29.66,29.66,0,0,1-11.3,8.48,37.62,37.62,0,0,1-15,2.91A36.63,36.63,0,0,1,204.13,61.77Z"/><path class="cls-1" d="M298.82,51.24H269.19l-5.66,13.68H248.4L276.85,1.09h14.58L320,64.92h-15.5ZM294.17,40,284.05,15.59,273.93,40Z"/><path class="cls-1" d="M369,3.92a22,22,0,0,1,9.62,8A22.11,22.11,0,0,1,382,24.25a22.19,22.19,0,0,1-3.37,12.27,21.51,21.51,0,0,1-9.62,8,35.85,35.85,0,0,1-14.73,2.78H341.4v17.6H326.63V1.09h27.62A35.51,35.51,0,0,1,369,3.92Zm-5.42,28.49Q367,29.55,367,24.25T363.56,16q-3.46-2.86-10.13-2.87h-12V35.29h12Q360.09,35.29,363.56,32.41Z"/><path class="cls-1" d="M435.59,13.13H415.16v-12h55.62v12H450.35V64.92H435.59Z"/><path class="cls-1" d="M517.55,51.24H487.92l-5.65,13.68H467.13L495.58,1.09h14.59l28.54,63.83h-15.5ZM512.9,40,502.78,15.59,492.66,40Z"/><path class="cls-1" d="M545.37,1.09h14.77V52.88h32v12H545.37Z"/><path class="cls-1" d="M392.46,0h14.77V64.92H392.46Z"/><path class="cls-1" d="M201.31,160A26.73,26.73,0,0,1,191,150a29.3,29.3,0,0,1,0-28.65,26.63,26.63,0,0,1,10.39-10,30.36,30.36,0,0,1,14.83-3.63,30.93,30.93,0,0,1,11.7,2.15,24,24,0,0,1,9.06,6.36l-5.07,4.92a20.38,20.38,0,0,0-15.38-6.48,22.3,22.3,0,0,0-11,2.73A19.72,19.72,0,0,0,197.8,125a22.12,22.12,0,0,0,0,21.47,19.72,19.72,0,0,0,7.68,7.53,22.3,22.3,0,0,0,11,2.73,20.38,20.38,0,0,0,15.38-6.56l5.07,4.92a24.24,24.24,0,0,1-9.09,6.4,30.76,30.76,0,0,1-11.75,2.19A30.12,30.12,0,0,1,201.31,160Z"/><path class="cls-1" d="M291.93,160a26.73,26.73,0,0,1-10.35-10,29.3,29.3,0,0,1,0-28.65,26.63,26.63,0,0,1,10.39-10,30.36,30.36,0,0,1,14.83-3.63,30.93,30.93,0,0,1,11.7,2.15,24,24,0,0,1,9.06,6.36l-5.07,4.92a20.38,20.38,0,0,0-15.38-6.48,22.3,22.3,0,0,0-11,2.73,19.78,19.78,0,0,0-7.68,7.53,22.19,22.19,0,0,0,0,21.47A19.78,19.78,0,0,0,296.1,154a22.3,22.3,0,0,0,11,2.73,20.38,20.38,0,0,0,15.38-6.56l5.07,4.92a24.24,24.24,0,0,1-9.09,6.4,30.73,30.73,0,0,1-11.75,2.19A30.17,30.17,0,0,1,291.93,160Z"/><path class="cls-1" d="M484.29,163l-.08-39.8-19.74,33.17h-3.59l-19.75-32.94V163h-7.49V108.39H440l22.79,38.4,22.48-38.4h6.4l.08,54.63Z"/><path class="cls-1" d="M578.35,149.36h-29l-6,13.66h-8L560,108.39h7.72L592.55,163h-8.19Zm-2.73-6.24-11.79-26.77L552,143.12Z"/><path class="cls-1" d="M374.08,108.39h7.8V163h-7.8Z"/><rect class="cls-2" x="190.09" y="83.17" width="404.73" height="5.11"/><path class="cls-3" d="M137.81,87v25.92a6.13,6.13,0,0,1-3.36,5.47L79.34,146.25a6.14,6.14,0,0,1-5.54,0L18.69,118.36a6.13,6.13,0,0,1-3.36-5.47V81.16L29.65,71.6a2.1,2.1,0,0,1,2.33,0l63,42a8.1,8.1,0,0,0,10.22-1l29.13-29.13Z"/><path class="cls-4" d="M134.33,34.66l3.48,3.48V73.77h-13.2l3.53,3.53-27.55,27.56a2.1,2.1,0,0,1-2.64.26L46.52,70.81l28-18.71a2.08,2.08,0,0,1,2.32,0L98.08,66.24a4.1,4.1,0,0,0,5.18-.51Z"/><path class="cls-5" d="M137.81,22.34v2.6h-13.2l3.55,3.55L101,55.69a2,2,0,0,1-2.55.25L80.26,43.83a8.1,8.1,0,0,0-9,0L38.68,65.58l-3.37-2.25a8.08,8.08,0,0,0-9,0l-11,7.34V22.34a6.12,6.12,0,0,1,6.13-6.13H131.68a6.12,6.12,0,0,1,5.45,3.32A6,6,0,0,1,137.81,22.34Z"/><path class="cls-6" d="M140.91.9H12.21A12.21,12.21,0,0,0,0,13.11V118.24a12.22,12.22,0,0,0,6.74,10.92l64.34,32.3a12.22,12.22,0,0,0,11,0l64.35-32.3a12.21,12.21,0,0,0,6.73-10.92V13.11A12.2,12.2,0,0,0,140.91.9ZM148,115.78a10.25,10.25,0,0,1-5.52,9.09L81.3,156.7a10.2,10.2,0,0,1-9.46,0l-61.2-31.83a10.23,10.23,0,0,1-5.52-9.09V16.24A10.25,10.25,0,0,1,15.37,6h122.4A10.25,10.25,0,0,1,148,16.24Z"/></g></g></svg>