<svg xmlns="http://www.w3.org/2000/svg" viewBox="0 0 182.42 59.24"><defs><style>.cls-1{fill:#002856;}.cls-2{fill:#0047ba;}</style></defs><g id="Capa_2" data-name="Capa 2"><g id="Capa_1-2" data-name="Capa 1"><polygon class="cls-1" points="58.97 17.36 49.45 41.65 42.66 58.98 33.87 58.98 28.65 41.65 21.34 17.36 19.96 12.79 18.2 17.36 8.79 41.65 0 41.65 9.41 17.36 16.11 0.02 16.13 0 24.91 0 30.14 17.36 37.44 41.65 38.84 46.3 40.66 41.65 50.18 17.36 58.97 17.36"/><path class="cls-2" d="M101.08,17.36h14.66v3.86H106.1v6.22h7.4v3.81h-7.4v6.44h10.67v4H101.08Z"/><path class="cls-2" d="M125.28,21.22h-6.89V17.36h18.8v3.86h-6.86V41.66h-5.05Z"/><path class="cls-2" d="M140.63,17.36h14.66v3.86h-9.63v6.22h7.39v3.81h-7.39v6.44h10.66v4H140.63Z"/><path class="cls-2" d="M159.05,29.46a13.6,13.6,0,0,1,.92-5.11,11,11,0,0,1,2.51-3.83,11.49,11.49,0,0,1,8.36-3.16,21.24,21.24,0,0,1,5.37.67l1.17.27-.73,4.42a10.41,10.41,0,0,0-1.82-.85,10.71,10.71,0,0,0-3.37-.52,7.73,7.73,0,0,0-3,.53,6.52,6.52,0,0,0-2.2,1.55,8.35,8.35,0,0,0-2,5.84,9.33,9.33,0,0,0,1.93,6.11,6.66,6.66,0,0,0,5.37,2.41,11.78,11.78,0,0,0,4.66-1,5,5,0,0,0,.92-.49v4.11a16.52,16.52,0,0,1-3.64,1.09,18.16,18.16,0,0,1-2.42.17,11.77,11.77,0,0,1-8.79-3.34A12.16,12.16,0,0,1,159.05,29.46Z"/><path class="cls-2" d="M75.21,17.37h5.38l4.49,13.25,1.28,4.62,1.29-4.62L91.9,17.37h5.36l-8.85,24.3H84.15Z"/><path class="cls-2" d="M78.05,41.67H72.66L68.18,28.42,66.9,23.8l-1.3,4.62L61.35,41.67H56l8.85-24.3h4.26Z"/><path class="cls-1" d="M109.7,52.36h1.45a1.7,1.7,0,0,1,1.06,3.12,1.57,1.57,0,0,1,1.37,1.66A1.85,1.85,0,0,1,111.52,59H109.7Zm.44,3h1a1.28,1.28,0,0,0,.91-.28,1.4,1.4,0,0,0,0-2.05,1.75,1.75,0,0,0-1.11-.28h-.84Zm0,3.23h1.11a2,2,0,0,0,1.45-.4,1.3,1.3,0,0,0,.42-1,1.21,1.21,0,0,0-.7-1.24,3,3,0,0,0-1.25-.19h-1Z"/><path class="cls-1" d="M119.77,56.16l-2.18-3.8h.5L120,55.71l2-3.35h.5l-2.24,3.8V59h-.44Z"/><path class="cls-1" d="M138.6,53.71a3,3,0,1,0-2.23,5,3.09,3.09,0,0,0,2.23-1v.57a3.31,3.31,0,0,1-2.21.83,3.42,3.42,0,1,1,0-6.84,3.19,3.19,0,0,1,2.23.87Z"/><path class="cls-1" d="M148.89,53.71a3,3,0,1,0-2.23,5,3.12,3.12,0,0,0,2.23-1v.57a3.34,3.34,0,0,1-2.21.83,3.42,3.42,0,1,1,0-6.84,3.24,3.24,0,0,1,2.23.87Z"/><path class="cls-1" d="M154.5,52.36V59h-.44V52.36Z"/><path class="cls-1" d="M160,59l.76-6.87,2.88,6.14,2.87-6.14.76,6.87h-.44l-.59-5.34s-2.59,5.58-2.6,5.58L161,53.66,160.4,59Z"/><path class="cls-1" d="M176,56.82H173.2L172.31,59h-.47l2.79-6.84L177.39,59h-.48Zm-.16-.4-1.25-3.14-1.26,3.14Z"/><path class="cls-1" d="M180.08,38a1,1,0,0,1,.73.21.83.83,0,0,1,.29.65.78.78,0,0,1-.34.68.74.74,0,0,1-.31.12l.89,1.21h-.7l-.76-1.15h-.07v1.15h-.56V38Zm-.27,1.32H180c.1,0,.55,0,.55-.43s-.44-.44-.54-.44h-.17Z"/><path class="cls-1" d="M180.16,41.72a2.26,2.26,0,1,1,2.26-2.26A2.26,2.26,0,0,1,180.16,41.72Zm0-4.16a1.9,1.9,0,1,0,1.9,1.9A1.9,1.9,0,0,0,180.16,37.56Z"/></g></g></svg>