<svg xmlns="http://www.w3.org/2000/svg" viewBox="0 0 135.09 31.76"><defs><style>.cls-1{fill:#00155c;}.cls-2{fill:#00a5cd;}</style></defs><g id="Capa_2" data-name="Capa 2"><g id="Capa_1-2" data-name="Capa 1"><path class="cls-1" d="M0,.69V.56H3.7A4.87,4.87,0,0,1,5.34.81a3.5,3.5,0,0,1,1.18.69,2.8,2.8,0,0,1,.7,1,2.82,2.82,0,0,1,.24,1.15,3.21,3.21,0,0,1-.22,1.14,2.7,2.7,0,0,1-.69,1,3.47,3.47,0,0,1-1.22.68,5.52,5.52,0,0,1-1.75.25c-.21,0-.61,0-1.21-.09v3.89a1.11,1.11,0,0,0,1.22,1.24v.13H0v-.13a1.39,1.39,0,0,0,.87-.3,1.15,1.15,0,0,0,.34-.94V2a1.62,1.62,0,0,0-.12-.66A.94.94,0,0,0,.8.92,1.12,1.12,0,0,0,.43.76L.15.69ZM2.37,1V6.28a6.57,6.57,0,0,0,1.16.1,3,3,0,0,0,1.86-.56,2.45,2.45,0,0,0,.76-2.09,3.09,3.09,0,0,0-.67-2.06,2.47,2.47,0,0,0-2-.81A5.79,5.79,0,0,0,2.37,1Z"/><path class="cls-1" d="M21.09,6.21a5.81,5.81,0,0,1-.78,3,6,6,0,0,1-2.15,2.18,5.72,5.72,0,0,1-3,.81,5.85,5.85,0,0,1-3-.81A6,6,0,0,1,10,9.16a5.87,5.87,0,0,1-.79-3A5.83,5.83,0,0,1,11,1.93,6.19,6.19,0,0,1,12.88.67a6.08,6.08,0,0,1,4.49,0,6.1,6.1,0,0,1,1.91,1.24,5.82,5.82,0,0,1,1.33,1.9A6,6,0,0,1,21.09,6.21Zm-1.35,0A6.64,6.64,0,0,0,19,2.72,4.09,4.09,0,0,0,17.11,1a5.15,5.15,0,0,0-2-.44,4.91,4.91,0,0,0-1.47.24,4,4,0,0,0-1.49.85A4.56,4.56,0,0,0,11,3.42a7.32,7.32,0,0,0-.46,2.78,7.76,7.76,0,0,0,.38,2.54A4.85,4.85,0,0,0,12,10.51a4.05,4.05,0,0,0,1.49,1,4.91,4.91,0,0,0,1.7.3,4.78,4.78,0,0,0,1.6-.28,4.18,4.18,0,0,0,1.48-.91,4.49,4.49,0,0,0,1.08-1.72A7.31,7.31,0,0,0,19.74,6.25Z"/><path class="cls-1" d="M23.06.72H22.9V.56h3.91a4,4,0,0,1,1.6.29,2.75,2.75,0,0,1,1,.74,3,3,0,0,1,.52,1,3.4,3.4,0,0,1,.16,1,2.77,2.77,0,0,1-.26,1.17,2.53,2.53,0,0,1-.79,1,3,3,0,0,1-1.33.55v0A4.67,4.67,0,0,1,29.6,8.19l1,1.73a5.31,5.31,0,0,0,1.11,1.46,1.61,1.61,0,0,0,.82.34v.13h-2l-.25-.33q-.12-.15-.24-.33c-.06-.08-.13-.2-.23-.35l-.18-.27L28.25,8.35a5.52,5.52,0,0,0-.83-1.11,3,3,0,0,0-.79-.61A2.43,2.43,0,0,0,26,6.4a4.44,4.44,0,0,0-.69-.05v4.13a1.11,1.11,0,0,0,1.23,1.24v.13H22.9v-.13a1.78,1.78,0,0,0,.6-.12.94.94,0,0,0,.43-.39,1.29,1.29,0,0,0,.18-.73V2A1.17,1.17,0,0,0,23.78,1,1.07,1.07,0,0,0,23.06.72Zm2.21,5.33h.64a4,4,0,0,0,1.66-.29,1.88,1.88,0,0,0,.94-.83,2.68,2.68,0,0,0,.29-1.32,3.19,3.19,0,0,0-.26-1.28,2.44,2.44,0,0,0-.88-1A3,3,0,0,0,26,.86a2.75,2.75,0,0,0-.7.07Z"/><path class="cls-1" d="M48.34,0A1.35,1.35,0,0,1,47.2.56H33.74a3,3,0,0,1-.46,0,1.39,1.39,0,0,1-.34-.09A.72.72,0,0,1,32.7.28,2.1,2.1,0,0,1,32.48,0h-.12V2.76h.12a1.71,1.71,0,0,1,.65-1.43A2.66,2.66,0,0,1,34.51,1h2.24v9.48a1.13,1.13,0,0,1-.35.95,1.34,1.34,0,0,1-.85.29v.13h3.59v-.13a1.11,1.11,0,0,1-1.22-1.24V1h5v9.48a1.13,1.13,0,0,1-.35.95,1.34,1.34,0,0,1-.85.29v.13h3.59v-.13a1.11,1.11,0,0,1-1.22-1.24V1h2.24a2.66,2.66,0,0,1,1.38.33,1.71,1.71,0,0,1,.65,1.43h.12V0Z"/><path class="cls-1" d="M61.52,6.21a5.72,5.72,0,0,1-.79,3,6,6,0,0,1-2.14,2.18,5.74,5.74,0,0,1-3,.81,5.89,5.89,0,0,1-3-.81,6,6,0,0,1-2.17-2.18,5.87,5.87,0,0,1-.79-3,5.68,5.68,0,0,1,.47-2.33,5.64,5.64,0,0,1,1.32-1.91A6.08,6.08,0,0,1,53.31.67a6.05,6.05,0,0,1,4.48,0,6.14,6.14,0,0,1,1.92,1.24A6,6,0,0,1,61,3.79,6,6,0,0,1,61.52,6.21Zm-1.35,0a6.64,6.64,0,0,0-.8-3.53A4,4,0,0,0,57.53,1a5.1,5.1,0,0,0-2-.44,5,5,0,0,0-1.48.24,4.11,4.11,0,0,0-1.49.85,4.54,4.54,0,0,0-1.19,1.75,7.3,7.3,0,0,0-.47,2.78,7.49,7.49,0,0,0,.39,2.54,4.71,4.71,0,0,0,1.07,1.77,4.05,4.05,0,0,0,1.49,1,4.87,4.87,0,0,0,1.7.3,4.72,4.72,0,0,0,1.59-.28,4.1,4.1,0,0,0,1.48-.91,4.51,4.51,0,0,0,1.09-1.72A7.31,7.31,0,0,0,60.17,6.25Z"/><path class="cls-1" d="M73.24,11.85H69v-.13h.15a1,1,0,0,0,.74-.31,1.23,1.23,0,0,0,.31-.93V2A1.37,1.37,0,0,0,69.93,1a1,1,0,0,0-.77-.33H69V.56H72.7A4.05,4.05,0,0,1,74,.77a3,3,0,0,1,1,.58,2.68,2.68,0,0,1,.66.85,2.31,2.31,0,0,1,.23,1,2.18,2.18,0,0,1-.66,1.65,4,4,0,0,1-1.77.94v0a9.35,9.35,0,0,1,1,.16,3.71,3.71,0,0,1,.85.3,3,3,0,0,1,.7.5,2.65,2.65,0,0,1,.82,1.32,3,3,0,0,1,.11.79,2.49,2.49,0,0,1-.46,1.52,3.21,3.21,0,0,1-1,1A4.62,4.62,0,0,1,73.24,11.85ZM71.39,5.74h.73a3.33,3.33,0,0,0,1.29-.18,4.1,4.1,0,0,0,.51-.34,2.17,2.17,0,0,0,.5-.68,2.22,2.22,0,0,0,.25-1.11,2.85,2.85,0,0,0-.17-1A2.5,2.5,0,0,0,74,1.66a2.31,2.31,0,0,0-.73-.55,2.17,2.17,0,0,0-.92-.2,3.61,3.61,0,0,0-1,.17Zm1.15.34H71.39v4.07a2.22,2.22,0,0,0,.08.68.82.82,0,0,0,.44.47,2.29,2.29,0,0,0,1.11.2,2.41,2.41,0,0,0,2.21-1,3.13,3.13,0,0,0,.23-2.77,2.42,2.42,0,0,0-.62-.87,3.14,3.14,0,0,0-1-.55A4.23,4.23,0,0,0,72.54,6.08Z"/><path class="cls-1" d="M78.48,11.72h.16a1,1,0,0,0,.73-.32,1.27,1.27,0,0,0,.32-.92V2a1.16,1.16,0,0,0-.36-1,1.45,1.45,0,0,0-.85-.29V.56h3.61V.69a1.48,1.48,0,0,0-.84.28,1.17,1.17,0,0,0-.37,1V10.2a1.24,1.24,0,0,0,.37,1,2,2,0,0,0,1.2.28h1a2.79,2.79,0,0,0,1-.15,1.28,1.28,0,0,0,.6-.47A4.48,4.48,0,0,0,85.5,10h.13l-.43,1.86H78.48Z"/><path class="cls-1" d="M91.9.42l3.38,9.67a4.36,4.36,0,0,0,.5,1.09,1.12,1.12,0,0,0,.46.43,2.31,2.31,0,0,0,.55.11v.13H93.11v-.13a2.79,2.79,0,0,0,.87-.1c.21-.07.31-.27.31-.59a2.27,2.27,0,0,0-.15-.69.23.23,0,0,1,0-.09l-1-3H89.2L88.3,10a3.26,3.26,0,0,0-.18.91.72.72,0,0,0,.24.64,1.23,1.23,0,0,0,.67.15v.13H86.38v-.13a1.33,1.33,0,0,0,.91-.43,3.39,3.39,0,0,0,.59-1.15L91.07.42ZM89.33,6.84h3.59L91.08,1.49h0Z"/><path class="cls-1" d="M109.68.56V.69a2.84,2.84,0,0,0-.68.16.78.78,0,0,0-.39.44,2.55,2.55,0,0,0-.14.94v9.9h-.07L99.73,2.46V9.4a8.17,8.17,0,0,0,.07,1.29,1.6,1.6,0,0,0,.2.61,1.22,1.22,0,0,0,1,.42v.13H98.16v-.13a1.38,1.38,0,0,0,.74-.2,1.06,1.06,0,0,0,.38-.66,7.21,7.21,0,0,0,.11-1.44V2.05L99,1.63a3,3,0,0,0-.8-.71,2.58,2.58,0,0,0-.74-.23V.56h2.12l8.54,9.56V2.84a7.48,7.48,0,0,0-.07-1.23,1,1,0,0,0-.34-.65,1.34,1.34,0,0,0-.88-.27V.56Z"/><path class="cls-1" d="M121.37,3.09h-.13a2.36,2.36,0,0,0-.77-1.4A3.82,3.82,0,0,0,119,.85a4.84,4.84,0,0,0-1.53-.27,4.23,4.23,0,0,0-1.83.41,4.35,4.35,0,0,0-1.47,1.16,5.41,5.41,0,0,0-1,1.79,7.25,7.25,0,0,0-.34,2.27,7.11,7.11,0,0,0,.33,2.21,5.28,5.28,0,0,0,1,1.76,4.25,4.25,0,0,0,1.49,1.13,4.37,4.37,0,0,0,1.87.38,5.9,5.9,0,0,0,1.88-.34,4.84,4.84,0,0,0,1.86-1.17v.44a8.94,8.94,0,0,1-1.87,1.16,5.39,5.39,0,0,1-2.11.37,6,6,0,0,1-2.43-.49A5.37,5.37,0,0,1,113,10.34a5.62,5.62,0,0,1-1.15-1.86,6.11,6.11,0,0,1,.42-5.19,6.06,6.06,0,0,1,2.2-2.24,5.77,5.77,0,0,1,3-.82,8.41,8.41,0,0,1,2.14.3l.8.22a2.08,2.08,0,0,0,.39.05.63.63,0,0,0,.4-.09.73.73,0,0,0,.15-.32h.12Z"/><path class="cls-1" d="M135.09,6.21a5.81,5.81,0,0,1-.78,3,6,6,0,0,1-2.14,2.18,5.78,5.78,0,0,1-3,.81,6,6,0,0,1-5.2-3,5.87,5.87,0,0,1-.8-3,5.84,5.84,0,0,1,.47-2.33A5.94,5.94,0,0,1,125,1.93,6.31,6.31,0,0,1,126.88.67a6.07,6.07,0,0,1,2.27-.44,5.87,5.87,0,0,1,4.13,1.66,5.67,5.67,0,0,1,1.33,1.9A6,6,0,0,1,135.09,6.21Zm-1.35,0A6.64,6.64,0,0,0,133,2.72,4,4,0,0,0,131.11,1a5.14,5.14,0,0,0-2-.44,4.92,4.92,0,0,0-1.48.24,4.11,4.11,0,0,0-1.49.85A4.44,4.44,0,0,0,125,3.42a7.12,7.12,0,0,0-.47,2.78,7.49,7.49,0,0,0,.39,2.54A4.7,4.7,0,0,0,126,10.51a4,4,0,0,0,1.5,1,4.81,4.81,0,0,0,3.29,0,4.18,4.18,0,0,0,1.48-.91,4.51,4.51,0,0,0,1.09-1.72A7.32,7.32,0,0,0,133.74,6.25Z"/><polygon class="cls-2" points="135.08 16.48 1.64 16.48 0.01 18.11 133.45 18.11 135.08 16.48"/><path class="cls-1" d="M4.4,24.63a1.87,1.87,0,0,0-1.69-1,1.5,1.5,0,0,0-1.6,1.55c0,.9.65,1.2,1.51,1.61a12.37,12.37,0,0,1,1.71.87,1.82,1.82,0,0,1,.92,1.61,2.54,2.54,0,0,1-2.68,2.44,2.46,2.46,0,0,1-2-.88A2.8,2.8,0,0,1,0,29.9l.49-.22a2.77,2.77,0,0,0,.46.8,2.12,2.12,0,0,0,1.61.71,2,2,0,0,0,2.07-1.93A1.47,1.47,0,0,0,3.82,28c-.25-.13-.75-.38-1.46-.72a3.21,3.21,0,0,1-1.57-1.1,1.76,1.76,0,0,1-.27-.95,2.05,2.05,0,0,1,2.2-2.07A2.31,2.31,0,0,1,4.81,24.3Z"/><path class="cls-1" d="M14.62,28.82H11L9.82,31.55H9.2L12.82,23l3.57,8.58h-.62Zm-.2-.5-1.61-3.95-1.64,3.95Z"/><path class="cls-1" d="M20.81,31.55V23.14L28,30.45V23.22h.57v8.54l-7.22-7.31v7.1Z"/><path class="cls-1" d="M40.63,23.22v7.83H43v.5h-3V23.22Z"/><path class="cls-1" d="M48,23.22v5.21a3.08,3.08,0,0,0,.36,1.8,2.55,2.55,0,0,0,4,0,3,3,0,0,0,.36-1.8V23.22h.57v5.21a3.31,3.31,0,0,1-.49,2.13,3.19,3.19,0,0,1-4.87,0,3.37,3.37,0,0,1-.49-2.13V23.22Z"/><path class="cls-1" d="M59.26,23.22v8.33h-.57V23.22Z"/><path class="cls-1" d="M68.57,24.63a1.87,1.87,0,0,0-1.69-1,1.5,1.5,0,0,0-1.6,1.55c0,.9.65,1.2,1.51,1.61a12.37,12.37,0,0,1,1.71.87,1.82,1.82,0,0,1,.92,1.61,2.54,2.54,0,0,1-2.68,2.44,2.46,2.46,0,0,1-2-.88,2.8,2.8,0,0,1-.55-.91l.49-.22a2.77,2.77,0,0,0,.46.8,2.12,2.12,0,0,0,1.61.71,2,2,0,0,0,2.07-1.93A1.47,1.47,0,0,0,68,28c-.25-.13-.75-.38-1.46-.72A3.21,3.21,0,0,1,65,26.13a1.76,1.76,0,0,1-.27-.95,2.05,2.05,0,0,1,2.2-2.07A2.31,2.31,0,0,1,69,24.3Z"/><path class="cls-1" d="M81,27.59v4h-.57V23.22h1.66a2.21,2.21,0,1,1,0,4.37Zm0-.5h1.13A1.67,1.67,0,0,0,84,25.41c0-1-.72-1.69-2-1.69H81Z"/><path class="cls-1" d="M97.7,27.41a4.46,4.46,0,1,1-4.45-4.3A4.32,4.32,0,0,1,97.7,27.41Zm-.59,0a3.87,3.87,0,1,0-3.86,3.78A3.76,3.76,0,0,0,97.11,27.41Z"/><path class="cls-1" d="M104.05,23.72v7.83h-.56V23.72h-2.23v-.5h5v.5Z"/><path class="cls-1" d="M118.75,27.41a4.46,4.46,0,1,1-4.46-4.3A4.33,4.33,0,0,1,118.75,27.41Zm-.59,0a3.87,3.87,0,1,0-3.87,3.78A3.76,3.76,0,0,0,118.16,27.41Z"/><path class="cls-1" d="M127.6,24.63a1.87,1.87,0,0,0-1.69-1,1.5,1.5,0,0,0-1.6,1.55c0,.9.65,1.2,1.51,1.61a11.8,11.8,0,0,1,1.71.87,1.82,1.82,0,0,1,.92,1.61,2.54,2.54,0,0,1-2.68,2.44,2.48,2.48,0,0,1-2-.88,2.8,2.8,0,0,1-.55-.91l.49-.22a3,3,0,0,0,.46.8,2.12,2.12,0,0,0,1.61.71,2,2,0,0,0,2.08-1.93A1.47,1.47,0,0,0,127,28c-.25-.13-.75-.38-1.46-.72a3.21,3.21,0,0,1-1.57-1.1,1.76,1.76,0,0,1-.27-.95,2.05,2.05,0,0,1,2.2-2.07A2.31,2.31,0,0,1,128,24.3Z"/><path class="cls-1" d="M135,21.1l-1.36,1.67-.52-.18,1.15-1.7ZM134,23.22v8.33h-.57V23.22Z"/></g></g></svg>