<svg xmlns="http://www.w3.org/2000/svg" viewBox="0 0 138.86 31.01"><defs><style>.cls-1{fill:#00155c;}.cls-2{fill:#00a5cd;}.cls-3{fill:#002856;}</style></defs><g id="Capa_2" data-name="Capa 2"><g id="Capa_1-2" data-name="Capa 1"><path class="cls-1" d="M0,.68V.55H3.64A4.73,4.73,0,0,1,5.25.8a3.11,3.11,0,0,1,1.15.68,2.83,2.83,0,0,1,.7,1,2.94,2.94,0,0,1,.23,1.14A2.9,2.9,0,0,1,7.11,4.7a2.54,2.54,0,0,1-.67,1,3.41,3.41,0,0,1-1.21.67,5.55,5.55,0,0,1-1.71.25c-.21,0-.61,0-1.19-.09V10.3a1.09,1.09,0,0,0,1.2,1.22v.12H0v-.12a1.36,1.36,0,0,0,.85-.29,1.14,1.14,0,0,0,.34-.93V1.91a1.52,1.52,0,0,0-.12-.64A.9.9,0,0,0,.79.91,1,1,0,0,0,.43.75L.15.68ZM2.33.94V6.17a6.27,6.27,0,0,0,1.14.1A3,3,0,0,0,5.3,5.72a2.4,2.4,0,0,0,.75-2,3.06,3.06,0,0,0-.66-2,2.46,2.46,0,0,0-2-.8A6.44,6.44,0,0,0,2.33.94Z"/><path class="cls-1" d="M20.73,6.11A5.77,5.77,0,0,1,20,9a5.9,5.9,0,0,1-2.11,2.13,5.65,5.65,0,0,1-3,.8A5.91,5.91,0,0,1,9.78,9,5.77,5.77,0,0,1,9,6.06a5.69,5.69,0,0,1,.47-2.29A5.54,5.54,0,0,1,10.76,1.9,6.12,6.12,0,0,1,12.66.66a6,6,0,0,1,4.41,0A6.05,6.05,0,0,1,19,1.85a5.65,5.65,0,0,1,1.3,1.88A5.78,5.78,0,0,1,20.73,6.11Zm-1.33,0a6.56,6.56,0,0,0-.78-3.47A4,4,0,0,0,16.81,1,4.9,4.9,0,0,0,14.88.57,5.09,5.09,0,0,0,13.43.8,4,4,0,0,0,12,1.64a4.48,4.48,0,0,0-1.18,1.72,7.27,7.27,0,0,0-.46,2.73,7.25,7.25,0,0,0,.39,2.5,4.67,4.67,0,0,0,1,1.74,4.13,4.13,0,0,0,1.47,1,4.74,4.74,0,0,0,1.67.3,4.61,4.61,0,0,0,1.57-.28,4,4,0,0,0,1.45-.89A4.51,4.51,0,0,0,19,8.74,7.13,7.13,0,0,0,19.4,6.14Z"/><path class="cls-1" d="M22.66.71h-.15V.55h3.84a3.7,3.7,0,0,1,1.57.29,2.66,2.66,0,0,1,1,.72,2.85,2.85,0,0,1,.51.93,3.34,3.34,0,0,1,.16,1,2.72,2.72,0,0,1-.26,1.15,2.43,2.43,0,0,1-.77,1,3.18,3.18,0,0,1-1.31.54v0a4.65,4.65,0,0,1,1.84,1.91l1,1.69a5.33,5.33,0,0,0,1.09,1.44,1.58,1.58,0,0,0,.81.34v.12H30c-.08-.11-.17-.21-.24-.32s-.16-.21-.24-.33a3.46,3.46,0,0,1-.22-.34l-.18-.26L27.76,8.2A5.23,5.23,0,0,0,27,7.11a3.14,3.14,0,0,0-.78-.6,2.27,2.27,0,0,0-.65-.22,4.54,4.54,0,0,0-.69,0V10.3A1.09,1.09,0,0,0,26,11.52v.12H22.51v-.12a1.71,1.71,0,0,0,.58-.12.88.88,0,0,0,.43-.38,1.37,1.37,0,0,0,.17-.72V1.91A1.17,1.17,0,0,0,23.37,1,1.11,1.11,0,0,0,22.66.71ZM24.83,6h.64a4,4,0,0,0,1.63-.29A1.89,1.89,0,0,0,28,4.85a2.74,2.74,0,0,0,.29-1.3,3.27,3.27,0,0,0-.26-1.26,2.32,2.32,0,0,0-.87-1A2.88,2.88,0,0,0,25.53.84a3.36,3.36,0,0,0-.7.07Z"/><path class="cls-1" d="M47.5,0a1.28,1.28,0,0,1-1.11.55H33.16a3,3,0,0,1-.46,0,.85.85,0,0,1-.33-.09.66.66,0,0,1-.23-.15A1.18,1.18,0,0,1,31.92,0H31.8V2.71h.12a1.68,1.68,0,0,1,.64-1.4A2.57,2.57,0,0,1,33.91,1h2.21V10.3a1.14,1.14,0,0,1-.34.93,1.34,1.34,0,0,1-.84.29v.12h3.53v-.12a1.09,1.09,0,0,1-1.21-1.22V1h4.9V10.3a1.11,1.11,0,0,1-.34.93,1.34,1.34,0,0,1-.84.29v.12h3.53v-.12a1.09,1.09,0,0,1-1.2-1.22V1h2.2a2.61,2.61,0,0,1,1.36.32,1.62,1.62,0,0,1,.63,1.4h.12V0Z"/><path class="cls-1" d="M60.46,6.11A5.77,5.77,0,0,1,59.69,9a5.9,5.9,0,0,1-2.11,2.13,5.65,5.65,0,0,1-2.95.8A5.91,5.91,0,0,1,49.51,9a5.77,5.77,0,0,1-.78-2.94,5.69,5.69,0,0,1,.47-2.29A5.54,5.54,0,0,1,50.49,1.9,6.12,6.12,0,0,1,52.39.66a6,6,0,0,1,4.41,0,6.05,6.05,0,0,1,1.88,1.21A5.65,5.65,0,0,1,60,3.73,5.78,5.78,0,0,1,60.46,6.11Zm-1.33,0a6.56,6.56,0,0,0-.78-3.47A4,4,0,0,0,56.54,1,4.9,4.9,0,0,0,54.61.57,5.09,5.09,0,0,0,53.16.8a4,4,0,0,0-1.46.84,4.48,4.48,0,0,0-1.18,1.72,7.29,7.29,0,0,0-.45,2.73,7.26,7.26,0,0,0,.38,2.5,4.67,4.67,0,0,0,1,1.74,4.13,4.13,0,0,0,1.47,1,4.74,4.74,0,0,0,1.67.3,4.61,4.61,0,0,0,1.57-.28,4,4,0,0,0,1.45-.89,4.51,4.51,0,0,0,1.07-1.69A7.13,7.13,0,0,0,59.13,6.14Z"/><path class="cls-1" d="M72,11.64H67.83v-.12H68a1,1,0,0,0,.73-.3,1.27,1.27,0,0,0,.3-.92V1.93A1.33,1.33,0,0,0,68.73,1,1,1,0,0,0,68,.68h-.13V.55h3.62a4,4,0,0,1,1.32.21,3.14,3.14,0,0,1,1,.57,2.54,2.54,0,0,1,.64.83,2.26,2.26,0,0,1,.23,1A2.18,2.18,0,0,1,74,4.79a3.91,3.91,0,0,1-1.74.92v0a7.39,7.39,0,0,1,1,.16,4.05,4.05,0,0,1,.83.29,3.49,3.49,0,0,1,.69.49,3.07,3.07,0,0,1,.5.59,3,3,0,0,1,.31.71,2.88,2.88,0,0,1,.1.78,2.48,2.48,0,0,1-.45,1.49,3.23,3.23,0,0,1-1,.95A4.72,4.72,0,0,1,72,11.64Zm-1.82-6h.72a3.15,3.15,0,0,0,1.26-.18,2.69,2.69,0,0,0,.5-.33,2,2,0,0,0,.5-.66,2.35,2.35,0,0,0,.24-1.1,2.69,2.69,0,0,0-.16-.94,2.46,2.46,0,0,0-.46-.8,2.2,2.2,0,0,0-.71-.54A2.12,2.12,0,0,0,71.14.9a3.49,3.49,0,0,0-1,.16ZM71.29,6H70.16v4a2.2,2.2,0,0,0,.08.67.82.82,0,0,0,.43.46,2.34,2.34,0,0,0,1.09.19,2.41,2.41,0,0,0,2.18-1,2.94,2.94,0,0,0,.44-1.58,2.79,2.79,0,0,0-.22-1.14,2.44,2.44,0,0,0-.61-.86,2.86,2.86,0,0,0-1-.53A3.78,3.78,0,0,0,71.29,6Z"/><path class="cls-1" d="M77.13,11.52h.15A1,1,0,0,0,78,11.2a1.22,1.22,0,0,0,.31-.9V1.93A1.15,1.15,0,0,0,78,1a1.38,1.38,0,0,0-.83-.28V.55h3.55V.68a1.43,1.43,0,0,0-.83.28,1.13,1.13,0,0,0-.36,1V10a1.21,1.21,0,0,0,.36,1A2,2,0,0,0,81,11.3h1a2.73,2.73,0,0,0,1-.15,1.29,1.29,0,0,0,.59-.46A4.32,4.32,0,0,0,84,9.82h.13l-.42,1.82h-6.6Z"/><path class="cls-1" d="M90.31.41l3.33,9.51A4.79,4.79,0,0,0,94.13,11a1.21,1.21,0,0,0,.45.42,2.31,2.31,0,0,0,.55.11v.12H91.5v-.12a2.72,2.72,0,0,0,.86-.1c.2-.07.3-.26.3-.58a2.14,2.14,0,0,0-.14-.68.23.23,0,0,1,0-.09l-1-2.95H87.66l-.88,2.73a3.08,3.08,0,0,0-.18.9.71.71,0,0,0,.23.62,1.26,1.26,0,0,0,.67.15v.12H84.89v-.12a1.28,1.28,0,0,0,.89-.42A3.17,3.17,0,0,0,86.37,10L89.5.41ZM87.79,6.73h3.53l-1.8-5.27h0Z"/><path class="cls-1" d="M107.79.55V.68a2.35,2.35,0,0,0-.67.16.78.78,0,0,0-.38.43,2.46,2.46,0,0,0-.13.92v9.73h-.08L98,2.42V9.24a9.38,9.38,0,0,0,.07,1.27,1.48,1.48,0,0,0,.2.59,1.17,1.17,0,0,0,1,.42v.12H96.47v-.12a1.37,1.37,0,0,0,.73-.2,1.07,1.07,0,0,0,.37-.64,7.2,7.2,0,0,0,.1-1.42V2l-.36-.42a3.1,3.1,0,0,0-.79-.7,2.52,2.52,0,0,0-.73-.22V.55h2.09l8.39,9.4V2.79a7.28,7.28,0,0,0-.07-1.21,1,1,0,0,0-.34-.64A1.33,1.33,0,0,0,105,.68V.55Z"/><path class="cls-1" d="M119.28,3h-.12a2.39,2.39,0,0,0-.77-1.38A3.87,3.87,0,0,0,117,.83a5,5,0,0,0-1.5-.26,4.09,4.09,0,0,0-1.8.41,4.17,4.17,0,0,0-1.45,1.13,5.6,5.6,0,0,0-.95,1.76,7.3,7.3,0,0,0-.34,2.24,6.79,6.79,0,0,0,.33,2.16,4.93,4.93,0,0,0,1,1.73,4.27,4.27,0,0,0,1.46,1.12,4.37,4.37,0,0,0,1.83.37,5.84,5.84,0,0,0,1.86-.34A4.82,4.82,0,0,0,119.18,10v.43a8.56,8.56,0,0,1-1.84,1.13,5,5,0,0,1-2.07.37,5.83,5.83,0,0,1-2.39-.48,5.51,5.51,0,0,1-1.83-1.29,5.82,5.82,0,0,1-1.13-1.83,6,6,0,0,1-.38-2.1,5.87,5.87,0,0,1,.8-3A6,6,0,0,1,112.5,1a5.68,5.68,0,0,1,3-.81,8,8,0,0,1,2.1.29l.78.22a2,2,0,0,0,.39,0,.71.71,0,0,0,.39-.08.73.73,0,0,0,.15-.32h.12Z"/><path class="cls-1" d="M132.77,6.11A5.68,5.68,0,0,1,132,9a5.8,5.8,0,0,1-2.1,2.13,5.65,5.65,0,0,1-2.95.8A5.86,5.86,0,0,1,121,6.06a5.85,5.85,0,0,1,.46-2.29,5.57,5.57,0,0,1,1.3-1.87A6,6,0,0,1,124.7.66a6,6,0,0,1,4.41,0A6.17,6.17,0,0,1,131,1.85a5.65,5.65,0,0,1,1.3,1.88A5.78,5.78,0,0,1,132.77,6.11Zm-1.33,0a6.56,6.56,0,0,0-.78-3.47A4,4,0,0,0,128.85,1a4.94,4.94,0,0,0-1.93-.43,5.09,5.09,0,0,0-1.45.23,4.09,4.09,0,0,0-1.47.84,4.58,4.58,0,0,0-1.17,1.72,7.27,7.27,0,0,0-.46,2.73,7.51,7.51,0,0,0,.38,2.5,4.82,4.82,0,0,0,1,1.74,4,4,0,0,0,1.47,1,4.7,4.7,0,0,0,1.67.3,4.65,4.65,0,0,0,1.57-.28,4,4,0,0,0,1.45-.89A4.51,4.51,0,0,0,131,8.74,7.35,7.35,0,0,0,131.44,6.14Z"/><path class="cls-1" d="M7.43,24.05a3.87,3.87,0,0,0-2.91-1.31,3.8,3.8,0,1,0,0,7.6,4.11,4.11,0,0,0,2.9-1.26v.72a4.38,4.38,0,0,1-2.88,1,4.3,4.3,0,1,1,0-8.6,4.28,4.28,0,0,1,2.9,1.09Z"/><path class="cls-1" d="M18.91,22.35v8.36h-.57V22.35Z"/><path class="cls-1" d="M30.2,30.71l1-8.65,3.73,7.73,3.74-7.73,1,8.65h-.57L38.31,24s-3.37,7-3.39,7l-3.38-7-.77,6.72Z"/><path class="cls-1" d="M55.27,28H51.6l-1.15,2.75h-.62l3.63-8.61L57,30.71h-.62Zm-.21-.5-1.61-4-1.65,4Z"/><path class="cls-1" d="M68.59,22.85v7.86H68V22.85H65.79v-.5h5v.5Z"/><path class="cls-1" d="M85,28H81.35L80.2,30.71h-.62l3.63-8.61,3.58,8.61h-.62Zm-.21-.5-1.61-4-1.65,4Z"/><path class="cls-1" d="M100.81,30.71,98,26.76h-.26v3.95h-.57V22.35h1.24a3.16,3.16,0,0,1,1.83.42,2.08,2.08,0,0,1,.89,1.8,2,2,0,0,1-1.45,2,3.35,3.35,0,0,1-1.06.16l2.82,3.95Zm-3-4.45h.83c1.23,0,2-.63,2-1.71a1.54,1.54,0,0,0-.77-1.45,3.15,3.15,0,0,0-1.32-.25h-.71Z"/><path class="cls-1" d="M112.87,22.35v8.36h-.57V22.35Z"/><path class="cls-1" d="M132.74,26.55a4.48,4.48,0,1,1-4.48-4.31A4.34,4.34,0,0,1,132.74,26.55Zm-.6,0a3.88,3.88,0,1,0-3.88,3.79A3.76,3.76,0,0,0,132.14,26.55Z"/><polygon class="cls-2" points="132.75 16.2 1.61 16.2 0.01 17.8 131.15 17.8 132.75 16.2"/><path class="cls-3" d="M136.53,27.12a1.06,1.06,0,0,1,.73.22.82.82,0,0,1,.28.65.81.81,0,0,1-.33.68,1,1,0,0,1-.32.12l.9,1.21h-.7l-.77-1.15h-.07V30h-.56V27.12Zm-.28,1.33h.16c.11,0,.56,0,.56-.44s-.44-.43-.55-.43h-.17Z"/><path class="cls-3" d="M136.6,30.84a2.26,2.26,0,1,1,2.26-2.26A2.26,2.26,0,0,1,136.6,30.84Zm0-4.15a1.9,1.9,0,1,0,1.9,1.89A1.9,1.9,0,0,0,136.6,26.69Z"/></g></g></svg>